<?xml version="1.0" encoding="UTF-8"?>
<svg xmlns="http://www.w3.org/2000/svg" xmlns:xlink="http://www.w3.org/1999/xlink" width="858pt" height="248pt" viewBox="0 0 858 248" version="1.1">
<g id="surface1">
<path style="fill:none;stroke-width:4.865;stroke-linecap:butt;stroke-linejoin:miter;stroke:rgb(44.299316%,10.198975%,37.298584%);stroke-opacity:1;stroke-miterlimit:8;" d="M 0.00025625 0.00159375 C -66.25365 0.00159375 -120.152088 -53.912469 -120.152088 -120.182 C -120.152088 -186.447625 -66.25365 -240.361688 0.00025625 -240.361688 C 66.250256 -240.361688 120.148694 -186.447625 120.148694 -120.182 C 120.148694 -53.912469 66.250256 0.00159375 0.00025625 0.00159375 Z M 0.00025625 0.00159375 " transform="matrix(1,0,0,-1,122.7224,2.818)"/>
<path style="fill:none;stroke-width:4.865;stroke-linecap:butt;stroke-linejoin:miter;stroke:rgb(44.299316%,10.198975%,37.298584%);stroke-opacity:1;stroke-miterlimit:8;" d="M -0.00165 -0.0016875 L -21.552431 -21.552469 L -52.290713 -21.552469 L -52.290713 -51.591531 L -74.18915 -73.493875 L -52.290713 -95.392313 L -52.290713 -125.435281 L -21.200869 -125.435281 L -5.505556 -141.130594 L -0.00165 -146.638406 L 21.549131 -125.087625 L 53.334287 -125.087625 L 53.334287 -95.044656 L 68.678037 -79.697 L 74.189756 -74.193094 L 51.5921 -51.591531 L 51.5921 -22.075906 L 22.072569 -22.075906 L 5.506162 -5.505594 Z M -0.00165 -0.0016875 " transform="matrix(1,0,0,-1,122.7204,49.678)"/>
<path style="fill:none;stroke-width:4.865;stroke-linecap:butt;stroke-linejoin:miter;stroke:rgb(44.299316%,10.198975%,37.298584%);stroke-opacity:1;stroke-miterlimit:8;" d="M 0.00150625 -0.00059375 C -43.803181 -0.00059375 -79.443806 -35.637313 -79.443806 -79.438094 C -79.443806 -123.242781 -43.803181 -158.8795 0.00150625 -158.8795 C 43.802287 -158.8795 79.439006 -123.242781 79.439006 -79.438094 C 79.439006 -35.637313 43.802287 -0.00059375 0.00150625 -0.00059375 Z M 0.00150625 -0.00059375 " transform="matrix(1,0,0,-1,122.7524,43.558)"/>
<path style=" stroke:none;fill-rule:evenodd;fill:rgb(44.299316%,10.198975%,37.298584%);fill-opacity:1;" d="M 15.246094 153.300781 L 14.890625 147.851563 L 28 134.273438 L 12.492188 136.628906 L 11.738281 132.273438 L 34.753906 128.699219 L 34.878906 133.582031 L 21.121094 147.917969 L 37.675781 145.460938 L 37.898438 149.730469 Z M 15.246094 153.300781 "/>
<path style=" stroke:none;fill-rule:evenodd;fill:rgb(44.299316%,10.198975%,37.298584%);fill-opacity:1;" d="M 26.867188 110.488281 L 17.292969 112.589844 L 26.46875 116.546875 Z M 30.71875 109.492188 L 30.085938 118.738281 L 34.945313 120.730469 L 33.96875 125.460938 L 12.28125 115.113281 L 12.886719 108.953125 L 36.339844 102.660156 L 35.757813 108.300781 Z M 30.71875 109.492188 "/>
<path style=" stroke:none;fill-rule:evenodd;fill:rgb(44.299316%,10.198975%,37.298584%);fill-opacity:1;" d="M 16.601563 90.914063 L 18.703125 86.160156 L 37.3125 81.21875 L 22.730469 75.597656 L 24.136719 71.28125 L 45.820313 79.597656 L 43.882813 84.042969 L 24.730469 89.535156 L 39.21875 95.820313 L 37.4375 100.140625 Z M 16.601563 90.914063 "/>
<path style=" stroke:none;fill-rule:evenodd;fill:rgb(44.299316%,10.198975%,37.298584%);fill-opacity:1;" d="M 28.839844 63.351563 L 32.191406 58.898438 L 39.878906 64.304688 L 36.3125 52.992188 L 40.007813 48.121094 L 44.003906 60.867188 L 59.078125 61.679688 L 55.828125 66.738281 L 42.566406 66.300781 L 50.949219 72.363281 L 47.949219 76.859375 Z M 28.839844 63.351563 "/>
<path style=" stroke:none;fill-rule:evenodd;fill:rgb(44.299316%,10.198975%,37.298584%);fill-opacity:1;" d="M 65.769531 45.503906 L 57.730469 39.855469 L 61.023438 48.957031 Z M 69.417969 47.730469 L 62.175781 52.898438 L 63.683594 57.929688 L 60 60.898438 L 52.539063 37.863281 L 57.621094 33.78125 L 78.039063 46.539063 L 73.667969 50.292969 Z M 69.417969 47.730469 "/>
<path style=" stroke:none;fill-rule:evenodd;fill:rgb(44.299316%,10.198975%,37.298584%);fill-opacity:1;" d="M 70.78125 25.011719 L 75.597656 22.5 L 85.660156 42.617188 L 81.320313 45.121094 Z M 70.78125 25.011719 "/>
<path style=" stroke:none;fill-rule:evenodd;fill:rgb(44.299316%,10.198975%,37.298584%);fill-opacity:1;" d="M 120.347656 11.757813 L 125.855469 11.460938 L 126.214844 25.597656 C 126.25 26.921875 126.082031 28.183594 125.714844 29.382813 C 125.347656 30.578125 124.746094 31.636719 123.917969 32.558594 C 123.085938 33.480469 122.207031 34.136719 121.273438 34.535156 C 119.988281 35.097656 118.429688 35.417969 116.597656 35.496094 C 115.546875 35.546875 114.386719 35.519531 113.132813 35.421875 C 111.882813 35.324219 110.828125 35.070313 109.972656 34.648438 C 109.125 34.234375 108.339844 33.621094 107.617188 32.816406 C 106.902344 32.007813 106.402344 31.167969 106.125 30.292969 C 105.667969 28.878906 105.429688 27.621094 105.398438 26.519531 L 105.039063 12.386719 L 110.609375 12.089844 L 110.976563 26.539063 C 111.007813 27.765625 111.359375 29.707031 112.042969 30.371094 C 112.71875 31.03125 114.757813 31.332031 115.925781 31.28125 C 117.082031 31.230469 119.167969 30.851563 119.804688 30.144531 C 120.445313 29.433594 120.75 27.457031 120.714844 26.210938 Z M 120.347656 11.757813 "/>
<path style=" stroke:none;fill-rule:evenodd;fill:rgb(44.299316%,10.198975%,37.298584%);fill-opacity:1;" d="M 136.824219 12.660156 L 142.167969 13.429688 L 150.738281 31.566406 L 154.050781 16.933594 L 158.558594 17.679688 L 153.492188 40.199219 L 148.550781 38.882813 L 140.417969 20.875 L 136.972656 35.824219 L 132.21875 35.449219 Z M 136.824219 12.660156 "/>
<path style=" stroke:none;fill-rule:evenodd;fill:rgb(44.299316%,10.198975%,37.298584%);fill-opacity:1;" d="M 167.78125 21.238281 L 172.660156 23.367188 L 162.648438 44.519531 L 158.082031 42.140625 Z M 167.78125 21.238281 "/>
<path style=" stroke:none;fill-rule:evenodd;fill:rgb(44.299316%,10.198975%,37.298584%);fill-opacity:1;" d="M 178.359375 26.761719 L 183.359375 29.460938 L 177.921875 46.980469 L 192.054688 35.898438 L 196.121094 39.71875 L 176.355469 52.800781 L 172.480469 50.050781 Z M 178.359375 26.761719 "/>
<path style=" stroke:none;fill-rule:evenodd;fill:rgb(44.299316%,10.198975%,37.298584%);fill-opacity:1;" d="M 202.660156 45.058594 L 210.820313 55.40625 L 207.609375 58.054688 L 202.351563 51.429688 L 198.742188 54.617188 L 204.246094 61.386719 L 201.179688 63.914063 L 195.675781 57.144531 L 190.964844 61.34375 L 196.417969 68.199219 L 193.339844 70.679688 L 184.660156 60.433594 Z M 202.660156 45.058594 "/>
<path style=" stroke:none;fill-rule:evenodd;fill:rgb(44.299316%,10.198975%,37.298584%);fill-opacity:1;" d="M 210.542969 71.96875 L 212.027344 74.382813 C 213.3125 76.746094 215.363281 75.980469 215.75 75.738281 C 216.332031 75.375 218.34375 74.304688 216.667969 71.648438 L 215.117188 69.136719 Z M 196.480469 74.300781 L 215.6875 63.058594 L 220.378906 71.035156 C 222.164063 73.878906 221.390625 76.316406 220.949219 77.378906 C 220.503906 78.441406 219.960938 79.078125 218.820313 79.785156 C 217.820313 80.398438 216.828125 80.710938 215.835938 80.726563 C 214.839844 80.734375 213.886719 80.492188 212.960938 80.003906 C 212.375 79.695313 211.632813 79.042969 210.574219 78.457031 L 204.746094 88.679688 L 201.296875 83.660156 L 206.308594 76.574219 C 207.113281 75.59375 207.371094 73.84375 207.371094 73.84375 L 199.210938 79.226563 Z M 196.480469 74.300781 "/>
<path style=" stroke:none;fill-rule:evenodd;fill:rgb(44.299316%,10.198975%,37.298584%);fill-opacity:1;" d="M 210.933594 91.164063 C 210.933594 91.164063 209.199219 95.0625 209.78125 96.683594 C 210.109375 97.597656 211.078125 98.710938 211.777344 98.960938 C 213.089844 99.429688 213.652344 99.109375 214.257813 98.921875 C 214.839844 98.738281 215.265625 98.34375 215.542969 97.738281 C 215.816406 97.125 215.8125 96.1875 215.992188 94.886719 C 216.421875 91.714844 216.71875 90.640625 217.382813 89.105469 C 218.046875 87.558594 219.25 86.519531 220.996094 85.972656 C 222.148438 85.617188 223.351563 85.585938 224.609375 85.878906 C 225.871094 86.171875 226.707031 86.511719 227.773438 87.554688 C 228.839844 88.601563 229.871094 90.015625 230.40625 92.246094 C 231.039063 94.882813 230.175781 97.597656 228.90625 99.195313 L 225.71875 96.75 C 226.09375 95.015625 226.347656 93.085938 226.140625 92.148438 C 225.8125 90.648438 222.570313 88.625 221.117188 93.371094 C 220.226563 96.253906 220.550781 103.9375 213.359375 103.671875 C 211.824219 103.613281 208.847656 103.523438 206.617188 99.050781 C 205.207031 96.234375 205.394531 92.714844 207.648438 89.097656 Z M 210.933594 91.164063 "/>
<path style=" stroke:none;fill-rule:evenodd;fill:rgb(44.299316%,10.198975%,37.298584%);fill-opacity:1;" d="M 233.003906 106.320313 L 233.378906 111.382813 L 210 113.820313 L 209.621094 108.851563 Z M 233.003906 106.320313 "/>
<path style=" stroke:none;fill-rule:evenodd;fill:rgb(44.299316%,10.198975%,37.298584%);fill-opacity:1;" d="M 234.578125 117.261719 L 234.257813 134.640625 L 229.523438 134.558594 L 229.632813 128.421875 L 210.339844 128.171875 L 210.445313 122.828125 L 229.738281 123.082031 L 229.847656 117.179688 Z M 234.578125 117.261719 "/>
<path style=" stroke:none;fill-rule:evenodd;fill:rgb(44.299316%,10.198975%,37.298584%);fill-opacity:1;" d="M 233.441406 139.320313 L 231.75 145.277344 L 222.722656 147.265625 L 230.085938 153.785156 L 228.324219 159.058594 L 217.769531 148.605469 L 208.058594 146.914063 L 208.855469 141.617188 L 219.601563 143.496094 Z M 233.441406 139.320313 "/>
<path style=" stroke:none;fill-rule:evenodd;fill:rgb(44.299316%,10.198975%,37.298584%);fill-opacity:1;" d="M 49.058594 186.359375 C 49.058594 188.480469 47.339844 190.199219 45.21875 190.199219 C 43.097656 190.199219 41.378906 188.480469 41.378906 186.359375 C 41.378906 184.238281 43.097656 182.519531 45.21875 182.519531 C 47.339844 182.519531 49.058594 184.238281 49.058594 186.359375 "/>
<path style=" stroke:none;fill-rule:evenodd;fill:rgb(44.299316%,10.198975%,37.298584%);fill-opacity:1;" d="M 203.738281 186.359375 C 203.738281 188.480469 202.019531 190.199219 199.894531 190.199219 C 197.777344 190.199219 196.058594 188.480469 196.058594 186.359375 C 196.058594 184.238281 197.777344 182.519531 199.894531 182.519531 C 202.019531 182.519531 203.738281 184.238281 203.738281 186.359375 "/>
<path style=" stroke:none;fill-rule:evenodd;fill:rgb(44.299316%,10.198975%,37.298584%);fill-opacity:1;" d="M 77.5 222.527344 L 84.792969 208.5 L 80.6875 207.253906 L 81.886719 204.058594 L 90.640625 207.183594 L 81.570313 224.640625 Z M 77.5 222.527344 "/>
<path style=" stroke:none;fill-rule:evenodd;fill:rgb(44.299316%,10.198975%,37.298584%);fill-opacity:1;" d="M 114.582031 222.359375 C 114.648438 222.144531 114.707031 221.929688 114.757813 221.734375 C 114.808594 221.53125 114.839844 221.359375 114.863281 221.210938 C 115.144531 219.28125 115.066406 218.050781 114.632813 217.507813 C 114.191406 216.96875 113.117188 216.570313 111.402344 216.320313 L 105.972656 215.523438 C 104.597656 215.320313 103.628906 215.351563 103.058594 215.625 C 102.492188 215.890625 102.136719 216.496094 102 217.429688 L 101.835938 218.519531 C 101.695313 219.46875 101.894531 220.152344 102.425781 220.570313 C 102.957031 220.996094 104.097656 221.328125 105.851563 221.585938 C 107.085938 221.769531 108.445313 221.925781 109.921875 222.0625 C 111.394531 222.199219 112.949219 222.292969 114.582031 222.359375 M 113.914063 225.320313 C 112.476563 225.335938 111.019531 225.289063 109.5625 225.183594 C 108.105469 225.074219 106.640625 224.914063 105.167969 224.699219 C 102.003906 224.234375 99.890625 223.542969 98.816406 222.636719 C 97.742188 221.738281 97.347656 220.335938 97.625 218.449219 L 98.011719 215.824219 C 98.253906 214.199219 98.96875 213.078125 100.164063 212.460938 C 101.363281 211.839844 103.109375 211.703125 105.402344 212.039063 L 113.667969 213.253906 C 116.140625 213.613281 117.773438 214.292969 118.554688 215.292969 C 119.34375 216.289063 119.566406 217.929688 119.226563 220.222656 L 118.847656 222.792969 C 118.3125 226.433594 116.636719 229.058594 113.828125 230.671875 C 111.011719 232.285156 107.308594 232.753906 102.714844 232.082031 C 102.332031 232.023438 102.046875 231.980469 101.855469 231.945313 C 101.664063 231.910156 101.484375 231.871094 101.316406 231.820313 L 99.089844 228.300781 L 100.332031 228.484375 C 104.503906 229.097656 107.582031 229.15625 109.550781 228.664063 C 111.523438 228.175781 112.976563 227.058594 113.914063 225.320313 "/>
<path style=" stroke:none;fill-rule:evenodd;fill:rgb(44.299316%,10.198975%,37.298584%);fill-opacity:1;" d="M 133.25 232.320313 L 131.570313 217.027344 L 127.28125 217.5 L 127 214.984375 L 135.402344 212.820313 L 137.5 231.851563 Z M 133.25 232.320313 "/>
<path style=" stroke:none;fill-rule:evenodd;fill:rgb(44.299316%,10.198975%,37.298584%);fill-opacity:1;" d="M 164.320313 214.011719 C 164.277344 213.789063 164.230469 213.578125 164.179688 213.378906 C 164.125 213.179688 164.074219 213.007813 164.023438 212.867188 C 163.367188 211.039063 162.714844 209.984375 162.078125 209.710938 C 161.433594 209.4375 160.300781 209.59375 158.675781 210.179688 L 153.527344 212.035156 C 152.222656 212.503906 151.386719 212.988281 151.011719 213.492188 C 150.636719 214 150.613281 214.695313 150.929688 215.589844 L 151.300781 216.628906 C 151.625 217.53125 152.121094 218.042969 152.785156 218.160156 C 153.449219 218.28125 154.613281 218.039063 156.277344 217.441406 C 157.453125 217.019531 158.71875 216.523438 160.078125 215.941406 C 161.4375 215.367188 162.851563 214.726563 164.320313 214.011719 M 165.132813 216.941406 C 163.871094 217.632813 162.570313 218.273438 161.234375 218.867188 C 159.902344 219.457031 158.539063 220.003906 157.140625 220.507813 C 154.140625 221.589844 151.953125 221.972656 150.585938 221.679688 C 149.222656 221.382813 148.210938 220.339844 147.570313 218.546875 L 146.667969 216.046875 C 146.117188 214.5 146.21875 213.171875 146.980469 212.066406 C 147.738281 210.960938 149.210938 210.011719 151.386719 209.226563 L 159.222656 206.410156 C 161.566406 205.566406 163.324219 205.398438 164.484375 205.910156 C 165.644531 206.417969 166.617188 207.765625 167.398438 209.945313 L 168.277344 212.390625 C 169.519531 215.851563 169.28125 218.957031 167.566406 221.699219 C 165.859375 224.453125 162.820313 226.609375 158.464844 228.179688 C 158.101563 228.308594 157.828125 228.40625 157.644531 228.460938 C 157.460938 228.519531 157.285156 228.570313 157.109375 228.601563 L 153.496094 226.542969 L 154.675781 226.121094 C 158.632813 224.699219 161.359375 223.308594 162.863281 221.945313 C 164.371094 220.582031 165.125 218.914063 165.132813 216.941406 "/>
<path style=" stroke:none;fill-rule:evenodd;fill:rgb(44.299316%,10.198975%,37.298584%);fill-opacity:1;" d="M 97.128906 109.898438 C 95.410156 109.832031 92.496094 108.480469 90.972656 109.683594 C 89.875 110.546875 90.621094 111.375 91.386719 112.210938 C 92.550781 113.476563 93.550781 114.570313 94.46875 116.03125 C 95.34375 117.4375 96.425781 119.390625 98.378906 119.164063 C 101.230469 118.828125 101.511719 114.738281 103.09375 112.9375 C 103.296875 112.707031 103.765625 112.546875 104.03125 112.386719 C 104.359375 112.183594 104.6875 111.972656 104.996094 111.730469 C 105.40625 111.40625 106.09375 110.808594 105.789063 110.214844 C 105.449219 109.546875 104.328125 109.472656 103.695313 109.453125 C 102.695313 109.414063 101.710938 109.582031 100.722656 109.703125 C 99.546875 109.851563 98.320313 109.945313 97.128906 109.898438 M 101.0625 79.351563 C 102.019531 80.179688 102.65625 81.582031 102.671875 82.933594 C 102.714844 86.410156 101.425781 89.808594 102.464844 93.292969 C 102.699219 94.101563 105.746094 94.328125 106.371094 94.304688 C 107.625 94.269531 109.464844 93.933594 109.957031 92.582031 C 110.480469 91.128906 109.125 89.394531 108.722656 88.070313 C 108.269531 86.597656 108.300781 84.296875 109.539063 83.125 C 112.363281 80.457031 115.339844 85.769531 115.960938 87.910156 C 116.753906 90.65625 117.089844 94.34375 115.480469 96.878906 C 114.003906 99.207031 110.753906 99.617188 108.304688 99.707031 C 106.632813 99.765625 102.523438 99.121094 102.5625 101.664063 C 102.589844 103.570313 105.121094 105.332031 106.828125 105.378906 C 108.765625 105.433594 110.800781 104.652344 112.753906 104.601563 C 114.46875 104.558594 116.957031 104.957031 117.945313 106.558594 C 119.027344 108.320313 119.761719 113.417969 120.054688 116.949219 C 120.890625 127.050781 119.117188 140.910156 119.351563 147.777344 C 119.53125 153.148438 121.398438 159.703125 114.777344 157.453125 C 113.277344 155.828125 114.304688 153.851563 114.421875 151.71875 C 114.753906 145.910156 114.421875 138.632813 114.421875 131.648438 C 114.421875 128.542969 114.898438 125.4375 114.824219 122.332031 C 114.777344 120.234375 115.179688 114.136719 112.542969 113.421875 C 110.207031 112.789063 108.054688 115.613281 107.035156 117.308594 C 107.734375 118.511719 110.246094 117.859375 110.550781 119.460938 C 110.089844 121.015625 110.449219 123.417969 109.496094 124.480469 C 107.722656 125.433594 104.761719 123.65625 102.8125 124.839844 C 102.070313 125.929688 101.40625 127.300781 102.464844 128.417969 C 105.503906 128.730469 109.378906 128.136719 109.851563 130.929688 C 110.601563 135.371094 105.1875 133.363281 102.8125 135.585938 C 101.058594 142.964844 103.855469 155.585938 102.8125 162.109375 C 102.613281 163.367188 102.03125 166.148438 100.351563 166.414063 C 97.214844 166.898438 96.019531 160.875 95.777344 157.808594 C 95.089844 149.121094 96.941406 142.074219 95.425781 134.871094 C 92.316406 134.074219 88.792969 135.058594 88.386719 132.363281 C 87.789063 128.394531 93.667969 130.292969 95.425781 127.347656 C 95.660156 123.097656 90.6875 126.140625 88.738281 124.480469 C 87.921875 123.78125 88.929688 119.1875 88.878906 118.117188 C 88.789063 116.074219 86.667969 112.453125 85.105469 115.679688 C 83.476563 119.039063 84.320313 123.875 84.648438 127.433594 C 84.839844 129.550781 85.128906 131.675781 85.222656 133.796875 C 85.5 139.972656 87.507813 158.476563 83.464844 159.246094 C 79.203125 160.050781 79.136719 153.277344 78.890625 148.851563 C 78.398438 140.042969 79.4375 126.144531 78.890625 118.382813 C 78.710938 115.863281 77.171875 111.464844 77.480469 109.78125 C 78.710938 103.121094 88.054688 106.253906 92.507813 104.324219 C 93.546875 103.875 96.226563 102.03125 95.417969 100.621094 C 94.757813 99.464844 91.425781 99.8125 90.265625 99.679688 C 87.152344 99.328125 83.523438 99.066406 82.054688 95.800781 C 81.527344 90.101563 82.863281 82.125 86.984375 83.261719 C 91.070313 84.386719 87.355469 88.753906 88.738281 92.21875 C 89.316406 93.65625 91.570313 95.601563 94.019531 94.726563 C 99.34375 92.828125 93.816406 83.269531 96.910156 79.820313 C 98.378906 78.183594 99.933594 78.371094 101.0625 79.351563 "/>
<path style=" stroke:none;fill-rule:evenodd;fill:rgb(44.299316%,10.198975%,37.298584%);fill-opacity:1;" d="M 133.898438 110.6875 C 134.742188 110.894531 136.101563 110.210938 136.796875 109.839844 C 137.671875 109.371094 138.335938 108.695313 138.785156 107.9375 C 140.28125 105.445313 138.96875 100.753906 134.644531 102.628906 C 132.433594 103.589844 132.222656 106.226563 132.398438 107.988281 C 132.472656 108.769531 132.800781 110.355469 133.839844 110.667969 C 133.859375 110.675781 133.882813 110.683594 133.898438 110.6875 M 132.457031 94.359375 C 131.246094 95.679688 132.0625 97.738281 134.671875 98.195313 C 135.628906 98.363281 138.542969 98.09375 139 97.035156 C 139.742188 95.3125 139.507813 93.570313 138.5625 93.003906 C 137.613281 92.4375 135.964844 93.042969 134.417969 93.363281 C 133.519531 93.542969 132.867188 93.910156 132.457031 94.359375 M 143.082031 114.625 C 141.554688 116.078125 138.496094 114.597656 136.578125 115.214844 C 130.578125 117.160156 133.804688 132.246094 133.027344 138.960938 C 132.550781 143.109375 131.191406 147.347656 130.1875 151.011719 C 129.445313 153.71875 129.074219 156.742188 127.964844 159.328125 C 126.390625 163.007813 122.390625 160.3125 122.628906 157.101563 C 122.804688 154.765625 124.289063 152.859375 124.859375 150.65625 C 128.976563 134.792969 128.769531 109.53125 126.636719 92.179688 C 126.460938 90.777344 126.230469 89.304688 126.484375 87.898438 C 126.65625 86.96875 127.367188 85.003906 128.421875 84.820313 C 129.464844 84.632813 130.917969 86.28125 131.746094 86.808594 C 134.597656 88.625 136.746094 88.363281 137.648438 84.738281 C 138.367188 81.832031 136.472656 81.011719 138.710938 79.777344 C 143.632813 77.066406 144.167969 89.007813 144.394531 91.828125 C 144.8125 97 144.792969 102.164063 144.378906 107.335938 C 144.21875 109.332031 144.4375 111.855469 143.667969 113.742188 C 143.515625 114.113281 143.320313 114.40625 143.082031 114.625 "/>
<path style=" stroke:none;fill-rule:evenodd;fill:rgb(44.299316%,10.198975%,37.298584%);fill-opacity:1;" d="M 158.421875 109.980469 C 158.628906 109.753906 158.777344 109.492188 158.863281 109.195313 C 159.324219 107.585938 159.183594 105.8125 158.242188 104.425781 C 157.746094 103.699219 155.765625 103.042969 154.894531 103.183594 C 154.390625 103.265625 153.503906 103.3125 153.183594 103.640625 C 152.867188 103.96875 152.96875 104.339844 152.808594 104.765625 C 152.214844 106.34375 152.535156 109.503906 154.1875 110.484375 C 155.445313 111.222656 157.476563 111.027344 158.421875 109.980469 M 152.722656 96.511719 C 153.148438 97.117188 153.769531 97.589844 154.550781 97.832031 C 156.210938 98.34375 159.164063 98.753906 159.902344 96.613281 C 160.101563 96.042969 159.214844 94.542969 158.898438 94.09375 C 158.34375 93.308594 157.5625 92.722656 156.703125 92.308594 C 155.386719 91.683594 153.003906 91.070313 152.332031 92.851563 C 151.84375 94.136719 152.015625 95.507813 152.722656 96.511719 M 156.417969 87.964844 C 156.929688 87.988281 158.320313 86.808594 158.855469 86.566406 C 159.675781 86.199219 160.511719 85.882813 161.425781 85.878906 C 164.867188 85.867188 164.929688 89.21875 164.621094 91.738281 C 164.140625 95.566406 163.742188 99.292969 163.691406 103.160156 C 163.589844 110.867188 163.8125 118.511719 164.226563 126.207031 C 164.46875 130.515625 164.800781 134.824219 165.042969 139.136719 C 165.179688 141.675781 165.296875 144.21875 165.425781 146.753906 C 165.546875 149.082031 165.15625 151.78125 165.804688 154.035156 C 166.414063 156.113281 168.492188 160.773438 164.921875 161.652344 C 160.269531 162.800781 159.613281 154.578125 159.25 150.316406 C 158.769531 144.597656 161.5625 119.203125 157.480469 116.308594 C 155.523438 114.921875 153.601563 115.511719 151.417969 115.695313 C 148.554688 115.9375 146.878906 115.082031 146.925781 112.203125 C 146.972656 109.410156 146.546875 106.695313 146.410156 103.90625 C 146.089844 97.671875 145.722656 91.15625 146.789063 84.972656 C 147.007813 83.65625 147.464844 80.652344 149.324219 80.527344 C 153.246094 80.257813 152.003906 87.796875 156.417969 87.964844 "/>
<path style=" stroke:none;fill-rule:evenodd;fill:rgb(44.299316%,10.198975%,37.298584%);fill-opacity:1;" d="M 154.367188 118.53125 C 154.484375 118.78125 154.566406 119.058594 154.609375 119.378906 C 154.738281 120.324219 154.414063 121.347656 154.144531 122.242188 C 153.832031 123.316406 152.8125 124.410156 153.414063 125.523438 C 153.90625 126.425781 155.238281 126.410156 155.328125 127.625 C 155.429688 129.003906 155.449219 130.152344 154.777344 131.414063 C 154.101563 132.675781 153.328125 133.136719 153.261719 134.632813 C 153.199219 136.054688 153.269531 137.488281 153.226563 138.917969 C 153.128906 142.359375 152.972656 145.8125 153.203125 149.257813 C 153.390625 152.042969 156.574219 160.027344 152.613281 161.53125 C 150.703125 162.25 148.789063 160.554688 148.234375 158.917969 C 147.371094 156.367188 147.917969 153.246094 148.003906 150.609375 C 148.183594 144.867188 149.042969 139 147.894531 133.300781 C 147.433594 130.992188 145.683594 128.433594 146.890625 126.0625 C 147.191406 125.464844 147.804688 125.097656 147.789063 124.46875 C 147.777344 123.984375 147.109375 123.222656 146.894531 122.800781 C 146.222656 121.488281 145.8125 120.285156 146.480469 118.863281 C 147.296875 117.148438 149.054688 116.675781 150.820313 116.773438 C 152.285156 116.855469 153.769531 117.261719 154.367188 118.53125 "/>
<path style=" stroke:none;fill-rule:evenodd;fill:rgb(44.299316%,10.198975%,37.298584%);fill-opacity:1;" d="M 142.929688 133.316406 C 142.210938 141.292969 142.863281 150.214844 140.453125 157.421875 C 139.636719 159.847656 136.515625 166.457031 134.074219 165.929688 C 129.828125 165.011719 134.34375 158.84375 135.132813 156.714844 C 137.308594 150.875 138.71875 141.34375 137.617188 134.027344 C 135.816406 132.753906 135.578125 130.011719 136.164063 128.058594 C 136.453125 127.105469 138.109375 126.160156 138.28125 125.25 C 138.488281 124.140625 136.78125 123.375 136.234375 122.53125 C 135.199219 120.90625 135.410156 119.25 136.988281 118.050781 C 139.21875 116.359375 144.9375 116.816406 143.96875 120.71875 C 143.570313 122.324219 141.863281 123.523438 142.15625 125.25 C 142.417969 126.777344 144.742188 128.230469 144.699219 129.773438 C 144.65625 131.386719 143.292969 132.472656 142.929688 133.316406 "/>
<path style=" stroke:none;fill-rule:evenodd;fill:rgb(44.299316%,10.198975%,37.298584%);fill-opacity:1;" d="M 308.878906 129.417969 C 310.972656 130.007813 307.445313 137.03125 306.148438 140.203125 C 305.980469 140.609375 304.828125 143.011719 304.546875 143.511719 C 303.949219 144.601563 303.492188 145.789063 303.179688 146.984375 C 302.515625 149.472656 302.476563 152.078125 302.640625 154.625 C 302.988281 160.011719 304.816406 164.441406 304.683594 169.8125 C 302.730469 170.125 301.386719 172.035156 299.4375 171.972656 C 294.640625 167.453125 285.957031 157.144531 296.992188 153.589844 C 297.652344 153.375 298.261719 148.105469 298.441406 147.328125 C 299.007813 144.90625 299.605469 142.464844 300.484375 140.109375 C 301.441406 137.542969 302.707031 134.515625 304.757813 132.523438 C 305.746094 131.566406 307.625 129.800781 308.878906 129.417969 M 382.261719 132.117188 C 382.554688 125.347656 383.222656 118.605469 383.339844 111.8125 L 383.347656 111.285156 L 383.351563 111.285156 L 383.351563 110.765625 L 383.355469 110.246094 L 383.355469 109.140625 C 383.378906 107.039063 383.515625 104.992188 383.777344 102.929688 L 383.800781 102.792969 L 383.835938 102.511719 L 383.859375 102.371094 L 383.875 102.226563 L 383.898438 102.089844 L 383.914063 101.949219 L 383.9375 101.804688 L 383.960938 101.664063 L 383.980469 101.523438 L 384.007813 101.378906 L 384.03125 101.238281 L 384.050781 101.101563 L 384.074219 100.957031 L 384.097656 100.816406 L 384.125 100.671875 C 384.429688 98.960938 385.179688 96.378906 383.253906 95.257813 C 380.40625 93.601563 375.015625 97.046875 372.695313 98.242188 C 358.621094 105.515625 344.945313 113.539063 330.726563 120.550781 C 327.921875 121.933594 325.074219 123.300781 322.089844 124.320313 C 319.476563 125.210938 316.804688 125.40625 314.179688 126.347656 C 311.484375 127.308594 309.523438 127.582031 306.566406 127.457031 C 305.4375 122.183594 314.722656 117.859375 318.636719 115.753906 C 321.535156 114.195313 324.578125 112.871094 327.617188 111.582031 C 329.53125 110.773438 335.109375 109.472656 336.253906 107.84375 C 339.921875 102.617188 342.253906 96.132813 342.902344 88.074219 C 334.054688 90.539063 311.597656 100.605469 309.925781 101.578125 C 307.15625 103.167969 304.78125 104.367188 300.929688 102.792969 C 296.5 100.984375 301.90625 94.472656 304.734375 92.363281 C 304.816406 93.484375 304.328125 95.867188 305.527344 96.492188 C 306.207031 96.84375 308.5 96.011719 309.210938 95.800781 C 314.308594 94.28125 319.332031 91.769531 324.132813 89.574219 C 329.875 86.949219 335.457031 83.996094 341.105469 81.183594 C 342.84375 80.320313 345.125 80.289063 346.042969 78.519531 C 346.980469 76.699219 346.785156 73.40625 347.070313 71.378906 C 347.726563 66.644531 348.386719 61.914063 349.921875 57.34375 C 350.457031 55.734375 351.496094 54.152344 351.886719 52.53125 L 351.921875 52.355469 L 351.945313 52.265625 L 351.964844 52.175781 L 351.976563 52.089844 L 351.992188 51.996094 L 352.015625 51.816406 L 352.0625 51.445313 L 352.078125 51.257813 L 352.085938 51.167969 L 352.09375 51.066406 L 352.09375 50.976563 L 352.097656 50.882813 L 352.097656 50.785156 L 352.105469 50.691406 L 352.105469 49.820313 L 352.097656 49.71875 L 352.097656 49.523438 L 352.09375 49.429688 C 352.074219 48.90625 352.039063 48.390625 352.011719 47.878906 L 352.011719 47.785156 L 352.003906 47.785156 L 352.003906 47.691406 L 352 47.59375 L 352 47.5 L 351.988281 47.316406 L 351.988281 47.128906 L 351.980469 47.128906 L 351.980469 46.851563 L 351.976563 46.761719 L 351.976563 46.492188 L 351.96875 36.746094 L 351.96875 19.179688 C 355.746094 18.285156 370.164063 33.058594 370.699219 33.859375 C 376.214844 42.15625 367.046875 66.398438 364.65625 72.832031 C 373.183594 73.265625 380.265625 67.460938 387.613281 64.925781 C 389.335938 64.332031 382.808594 60.160156 382.4375 59.992188 C 381.261719 59.464844 379.980469 59.035156 378.953125 58.273438 L 378.910156 58.242188 L 378.804688 58.15625 L 378.765625 58.125 C 378.082031 57.527344 377.480469 56.523438 377.460938 55.726563 L 377.460938 55.6875 C 380.777344 55.546875 384.324219 56.496094 387.722656 56.507813 C 389.742188 56.515625 391.765625 56.464844 393.792969 56.441406 C 395.21875 56.425781 397.039063 55.859375 398.429688 56.25 C 399.921875 56.667969 400.078125 57.773438 401.246094 58.550781 C 402.230469 59.214844 403.960938 59.039063 404.507813 59.753906 C 406.78125 62.816406 403.570313 65.523438 400.847656 66.410156 C 396.363281 67.875 392.109375 69.707031 387.691406 71.328125 C 383.28125 72.941406 378.960938 74.757813 374.558594 76.386719 C 372.195313 77.257813 369.84375 78.164063 367.457031 78.984375 C 366.046875 79.460938 361.269531 80.203125 360.425781 81.300781 C 358.105469 84.34375 356.304688 87.710938 354.640625 91.097656 C 353.074219 94.285156 350.542969 98.050781 349.808594 101.449219 C 353.914063 101.59375 359.128906 98.839844 362.835938 97.503906 C 369.207031 95.203125 375.527344 92.726563 381.941406 90.527344 C 384.101563 89.789063 386.378906 88.632813 388.648438 88.285156 C 390.542969 87.996094 389.992188 88.023438 391.226563 89.289063 C 392.417969 90.503906 394.101563 90.804688 394.734375 92.496094 C 395.625 94.835938 394.375 98.3125 394.269531 100.742188 C 393.914063 109.066406 392.996094 117.390625 392.285156 125.6875 C 391.238281 138.171875 390.171875 150.65625 389.007813 163.128906 C 388.839844 164.925781 388.457031 166.671875 388.375 168.480469 C 388.292969 170.230469 389.097656 174.492188 387.378906 175.742188 C 383.445313 178.589844 373.039063 169.3125 370.304688 167.136719 C 368.214844 165.496094 366.265625 163.699219 363.945313 162.328125 C 363.242188 161.914063 362.234375 160.492188 361.324219 160.792969 C 359.863281 161.289063 360.257813 162.246094 359.453125 162.972656 C 357.644531 164.609375 350.644531 163.925781 348.546875 163.339844 C 345.746094 162.558594 345.578125 159.945313 345.929688 157.546875 C 346.015625 156.9375 340.648438 156.902344 339.996094 155.941406 C 339.824219 155.699219 339.769531 154.496094 339.601563 154.058594 C 338.710938 151.824219 340.53125 151.296875 342.234375 150.238281 C 344.308594 148.953125 346.421875 148.046875 348.949219 147.941406 C 349.730469 147.910156 348.261719 145.167969 348.011719 144.917969 C 347.167969 144.0625 345.859375 143.753906 344.757813 143.296875 C 342.75 142.453125 340.210938 141.925781 341.367188 139.4375 C 342.441406 137.113281 346.515625 134.664063 348.949219 133.828125 C 349.246094 133.722656 350.539063 129.769531 350.871094 129.203125 C 351.726563 127.75 352.785156 126.417969 353.78125 125.054688 C 355.660156 122.46875 358.390625 118.765625 357.847656 115.460938 C 357.785156 115.050781 356.980469 113.613281 351.371094 118.011719 C 349.484375 119.480469 347.847656 122.15625 346.335938 123.976563 C 344.589844 126.070313 342.644531 128.039063 340.96875 130.183594 C 339.328125 132.269531 338.605469 134.15625 335.535156 133.953125 C 332.957031 133.785156 330.410156 132.757813 328.234375 131.53125 C 324.992188 129.707031 323.515625 129.121094 324.859375 125.40625 C 324.761719 125.691406 335.273438 125.019531 336.335938 124.652344 C 339.722656 123.484375 342.5 121.167969 345.324219 119.140625 C 347.882813 117.304688 350.347656 115.324219 352.59375 113.160156 C 354.792969 111.046875 355.960938 110.582031 358.859375 109.558594 C 361.117188 108.761719 362.875 107.085938 365.167969 106.351563 C 368.707031 105.234375 373.976563 108.421875 371.792969 112.191406 C 371.011719 113.535156 369 114.496094 367.957031 115.730469 C 366.816406 117.078125 365.953125 118.59375 364.585938 119.777344 C 360.652344 123.183594 356.257813 126.988281 353.890625 131.554688 C 356.160156 132.207031 359.976563 130.1875 361.492188 132 C 362.65625 133.402344 362.074219 135.726563 361.863281 137.316406 C 361.636719 139.023438 359.488281 139.855469 359.261719 141.203125 C 358.960938 142.964844 361.234375 142.546875 362.265625 142.929688 C 363.382813 143.351563 363.113281 142.632813 363.574219 143.882813 C 363.957031 144.957031 362.882813 147.375 362.671875 148.488281 C 362.371094 150.164063 361.949219 151.769531 362.386719 153.515625 C 363.765625 158.96875 365.167969 158.644531 368.660156 160.207031 C 372.648438 161.992188 382.292969 165.894531 380.671875 159.792969 C 379.277344 154.519531 382.53125 148.140625 382.257813 143.09375 L 382.226563 142.5625 L 382.203125 142.039063 L 382.152344 140.472656 L 382.140625 139.949219 L 382.136719 139.421875 L 382.128906 138.902344 L 382.128906 137.335938 L 382.140625 136.289063 L 382.148438 135.773438 L 382.152344 135.773438 L 382.1875 134.203125 L 382.203125 133.6875 L 382.222656 133.164063 L 382.246094 132.640625 L 382.269531 132.125 Z M 382.261719 132.117188 "/>
<path style=" stroke:none;fill-rule:evenodd;fill:rgb(44.299316%,10.198975%,37.298584%);fill-opacity:1;" d="M 460.707031 119.324219 C 464.683594 118.628906 463.746094 124.539063 464.03125 126.746094 C 464.421875 129.757813 464.921875 132.753906 465.398438 135.753906 C 466.058594 139.964844 467.949219 144.398438 468.117188 148.632813 C 468.292969 152.84375 454.257813 156.558594 454.128906 155.402344 C 453.390625 149.246094 454.992188 142.203125 456.046875 136.117188 C 456.59375 133.003906 457.253906 129.894531 458.101563 126.835938 C 458.34375 125.957031 459.769531 119.496094 460.707031 119.324219 M 494.710938 139.605469 L 494.605469 139.699219 C 494.078125 140.226563 493.953125 141.539063 493.773438 142.167969 C 493.347656 143.683594 492.34375 145.773438 492.496094 147.367188 C 492.753906 149.972656 496.242188 149.625 498.554688 150.6875 C 499.234375 147.359375 501.214844 141.523438 497.835938 138.890625 C 497.359375 139.941406 495.460938 139.066406 494.714844 139.601563 L 494.714844 139.605469 Z M 537.582031 147.3125 C 537.582031 149.40625 537.453125 151.496094 537.394531 153.585938 L 537.394531 153.695313 L 537.390625 153.800781 L 537.390625 154.015625 L 537.382813 154.121094 C 537.3125 157.117188 538.34375 159.015625 536.058594 161.367188 C 535.125 162.316406 531.824219 166.207031 530.25 165.882813 C 528.699219 165.554688 508.332031 159 500.347656 155.253906 C 496.613281 153.5 492.742188 152.203125 488.945313 150.636719 C 486.882813 149.769531 484.261719 147.742188 484.792969 145.367188 C 483.160156 145.5 478.78125 145.171875 478.996094 142.828125 C 479.132813 141.429688 481.769531 140.554688 482.828125 140.011719 C 484.363281 139.226563 485.566406 138.660156 486.160156 137.035156 C 487.6875 132.839844 481.636719 134.011719 478.914063 133.957031 C 478.996094 130.785156 480.757813 129.53125 483.492188 128.082031 C 486.207031 126.644531 488.429688 125.003906 491.359375 123.859375 C 495.152344 122.378906 498.117188 119.917969 501.570313 117.894531 C 505.414063 115.648438 506.863281 118.167969 510.824219 118.261719 C 512.21875 123.035156 508.183594 123.378906 505.472656 126.109375 C 506.613281 127.460938 509.238281 126.371094 510.835938 126.707031 C 511.738281 135.550781 514.449219 147.839844 504.9375 153.203125 C 505.703125 152.765625 509.855469 154.257813 510.835938 154.457031 C 513.058594 154.910156 515.289063 155.328125 517.539063 155.664063 C 521.585938 156.285156 526.085938 156.996094 530.167969 156.535156 C 531.828125 149.636719 527.410156 142.171875 527.792969 135.140625 C 523.335938 119.28125 530.089844 92.984375 527.914063 73.726563 C 525.359375 73.363281 526.964844 82.15625 526.882813 83.234375 C 526.710938 85.519531 524.996094 86.296875 523.308594 87.769531 C 521.003906 89.78125 519.796875 92.109375 518.542969 94.757813 C 517.847656 96.234375 517.113281 97.683594 516.285156 99.109375 C 515.714844 100.078125 513.992188 101.871094 513.890625 102.960938 C 513.617188 106.128906 516.902344 110.230469 511.234375 109.847656 C 509.074219 109.703125 506.707031 109.085938 504.917969 107.90625 C 504.324219 107.519531 501.527344 104.050781 501.203125 104.085938 C 495.800781 104.609375 495.769531 110.28125 495.710938 114.167969 C 495.710938 116.457031 492.882813 120.339844 489.847656 121.007813 L 489.679688 121.042969 L 489.507813 121.066406 L 489.503906 121.066406 L 489.335938 121.089844 L 489.164063 121.101563 L 488.816406 121.101563 L 488.648438 121.089844 L 488.472656 121.074219 L 488.304688 121.042969 L 488.136719 121.007813 L 487.964844 120.964844 C 487.792969 118.738281 489.113281 116.824219 489.648438 114.726563 C 489.992188 113.378906 489.871094 111.328125 489.5625 110.027344 C 486.988281 111.175781 484.117188 116.304688 481.519531 116.324219 C 480.027344 116.335938 477.339844 113.609375 476.820313 112.4375 C 474.351563 106.851563 489.679688 105.445313 492.742188 104.085938 C 492.945313 104 493.871094 96.640625 494.117188 95.746094 C 494.832031 93.191406 496.089844 90.058594 495.617188 87.429688 C 495.804688 86.46875 489.054688 90.359375 488.332031 90.796875 C 485.964844 92.21875 483.691406 93.777344 481.273438 95.117188 C 476.773438 97.609375 470.046875 100.171875 464.714844 98.804688 C 463.742188 98.5625 462.996094 97.761719 462.230469 97.214844 C 464.648438 93.167969 471.484375 90.011719 475.71875 87.882813 C 481.011719 85.222656 486.578125 83.0625 492.128906 80.933594 C 492.890625 80.644531 492.363281 79.691406 492.882813 79.355469 C 493.578125 78.898438 495.496094 79.214844 496.339844 79.214844 C 498.203125 79.214844 500.90625 78.542969 502.558594 79.652344 C 504.71875 81.097656 503.550781 84.089844 502.910156 86.023438 C 501.21875 91.070313 498.269531 95.160156 498.789063 100.691406 C 513.605469 103.808594 513.996094 93.453125 519.941406 88.277344 C 521.007813 79.296875 523.261719 71.421875 525.988281 64 C 527.851563 63.890625 529.429688 63.738281 531.277344 63.726563 C 532.742188 63.726563 535.304688 63.042969 536.695313 63.40625 L 536.695313 63.414063 L 536.707031 63.414063 L 536.714844 63.417969 L 536.71875 63.417969 L 536.730469 63.425781 L 536.753906 63.425781 L 536.761719 63.429688 L 536.789063 63.4375 L 536.808594 63.441406 L 536.808594 63.449219 L 536.828125 63.449219 C 539.71875 64.515625 538.410156 72.292969 538.617188 74.703125 C 540.300781 93.910156 533.824219 112.882813 535.652344 135.691406 L 535.839844 136.015625 L 536.015625 136.34375 L 536.097656 136.511719 L 536.101563 136.511719 C 537.722656 139.792969 537.621094 143.804688 537.589844 147.308594 Z M 492.734375 130.050781 L 492.734375 134.007813 C 494.9375 131.917969 499.472656 131.09375 500.214844 127.636719 C 496.4375 126.9375 497.480469 128.425781 492.734375 130.050781 "/>
<path style=" stroke:none;fill-rule:evenodd;fill:rgb(44.299316%,10.198975%,37.298584%);fill-opacity:1;" d="M 605.316406 127.828125 C 601.917969 126.542969 600.074219 124.691406 599.726563 118.78125 C 601.890625 118.828125 601.8125 120.972656 603.34375 121.609375 C 608.554688 120.078125 614.933594 119.640625 617.847656 115.964844 C 618.027344 115.726563 622.703125 115.40625 623.417969 115.167969 C 624.9375 114.660156 626.316406 113.902344 627.660156 113.082031 C 629.394531 112.019531 631.714844 111.535156 633.292969 110.332031 C 635.734375 108.480469 635.25 104.84375 635.746094 102.210938 C 637.03125 95.363281 639.839844 88.8125 640.902344 81.90625 C 641.558594 77.683594 638.296875 68.484375 645.332031 67.867188 C 646.734375 67.746094 647.492188 68.976563 648.085938 69.941406 C 649.0625 71.546875 649.253906 71.0625 650.769531 71.976563 L 650.882813 72.050781 L 651 72.117188 L 651.109375 72.191406 L 651.226563 72.261719 L 651.339844 72.332031 L 651.441406 72.398438 L 651.554688 72.46875 L 651.660156 72.539063 L 651.664063 72.539063 C 653.613281 73.839844 654.871094 75.222656 654.898438 77.53125 L 654.90625 77.660156 C 654.90625 79.621094 654.773438 81.621094 654.488281 83.578125 L 654.449219 83.8125 L 654.433594 83.933594 L 654.417969 84.042969 L 654.394531 84.164063 L 654.382813 84.28125 L 654.359375 84.398438 L 654.339844 84.515625 L 654.320313 84.628906 L 654.300781 84.746094 L 654.277344 84.863281 L 654.261719 84.984375 L 654.238281 85.09375 L 654.214844 85.210938 C 654.015625 86.261719 653.847656 87.488281 653.257813 88.4375 C 652.457031 89.730469 651.902344 90.109375 651.523438 91.566406 C 651.105469 93.152344 650.824219 94.683594 650.238281 96.234375 C 649.105469 99.207031 647.710938 102.027344 647.4375 105.226563 C 650.808594 106.855469 654.457031 103.890625 657.710938 103.53125 C 656.851563 99.613281 656.851563 100.113281 657.710938 96.191406 C 657.851563 95.582031 662.84375 96.347656 663.390625 96.359375 C 664.207031 96.367188 665.171875 96.464844 665.910156 96.058594 C 666.511719 95.722656 666.484375 94.828125 667.101563 94.519531 C 667.859375 94.136719 669.675781 94.5 670.527344 94.507813 C 673.296875 94.53125 676.074219 94.496094 678.851563 94.496094 C 682.078125 103.902344 670.496094 103.867188 660.476563 107.238281 L 660.039063 107.382813 L 660.039063 107.386719 L 659.597656 107.535156 L 659.167969 107.679688 L 658.730469 107.828125 L 658.300781 107.976563 C 649.824219 110.886719 642.609375 113.699219 642.609375 113.699219 C 639.226563 131.835938 629.070313 151.171875 608.53125 156.585938 C 602.691406 158.125 594.976563 159.453125 588.910156 158.851563 C 587.964844 158.753906 590.527344 157.324219 590.453125 157.402344 C 591.570313 156.25 591.296875 155.972656 593.421875 155.386719 C 597.210938 154.332031 600.84375 152.875 604.304688 151.074219 C 610.847656 147.675781 616.632813 143.210938 622.671875 139.117188 C 623.175781 138.773438 623.570313 135.03125 623.859375 134.246094 C 624.417969 132.761719 625.15625 131.34375 625.914063 129.917969 C 627.308594 127.296875 631.222656 121.75 631.113281 118.804688 C 628.226563 121.03125 625.785156 122.621094 622.300781 123.90625 C 619.832031 124.8125 616.761719 127.136719 614.125 127.433594 C 613.199219 127.535156 606.894531 128.425781 605.316406 127.828125 M 649.859375 124.429688 C 649.375 124.394531 652.320313 126.242188 652.578125 126.347656 C 653.105469 126.574219 653.8125 126.617188 654.21875 127.078125 C 654.683594 127.613281 654.457031 128.519531 654.980469 128.984375 C 655.535156 129.476563 657.21875 129.621094 657.960938 129.902344 C 659.816406 130.605469 661.523438 131.570313 663.140625 132.648438 C 664.125 133.300781 671.453125 139.582031 672.214844 139.117188 C 676.117188 136.738281 681.039063 139.644531 685.1875 138.496094 C 686.683594 138.082031 688.808594 137.292969 688.511719 139.554688 C 688.464844 139.921875 685.757813 143.585938 685.496094 143.636719 C 678.246094 145.066406 675.335938 149.871094 669.792969 149.285156 C 665.203125 148.789063 654.695313 136.484375 654.695313 135.730469 C 651.089844 132.324219 647.113281 129.261719 644.425781 124.996094 C 645.933594 124.523438 647.660156 124.261719 649.859375 124.429688 "/>
<path style=" stroke:none;fill-rule:evenodd;fill:rgb(44.299316%,10.198975%,37.298584%);fill-opacity:1;" d="M 819.964844 81.179688 L 819.964844 76.097656 M 824.394531 130.351563 C 826.308594 131.082031 827.675781 132.4375 827.519531 134.886719 C 827.230469 139.242188 823.613281 140.671875 819.453125 140.816406 C 816.710938 140.914063 808.808594 139.175781 807.0625 141.855469 C 805.875 143.6875 808.449219 147.023438 808.792969 148.953125 C 809.289063 151.738281 809.515625 154.566406 809.65625 157.394531 C 809.910156 162.652344 809.851563 167.941406 809.792969 173.203125 C 809.742188 177.5 806.339844 181.136719 801.8125 182.285156 C 798.746094 183.070313 795.433594 181.660156 792.371094 181.386719 C 788.785156 181.066406 785.40625 181.960938 782.222656 180.050781 C 780.03125 178.742188 777.933594 178.707031 775.546875 177.699219 L 775.417969 177.640625 L 775.277344 177.582031 L 775.144531 177.523438 L 775 177.464844 L 774.859375 177.40625 L 774.714844 177.347656 L 774.410156 177.234375 L 774.265625 177.167969 L 774.113281 177.117188 L 773.960938 177.054688 C 771.300781 175.984375 768.183594 174.609375 768.066406 171.878906 L 768.0625 171.722656 C 770.550781 173.578125 774.191406 173.179688 777.195313 173.40625 C 780.535156 173.65625 783.894531 173.789063 787.230469 174.121094 C 789.839844 174.375 792.457031 174.699219 795.078125 174.734375 C 798.25 174.769531 800.800781 172.210938 803.050781 170.375 C 803.570313 167.957031 803.523438 165.589844 804.195313 163.207031 C 804.722656 161.285156 803.863281 159.429688 803.4375 157.566406 C 802.855469 155.007813 802.539063 152.402344 801.976563 149.839844 C 801.65625 148.390625 801.300781 145.746094 800.445313 144.550781 C 799.542969 143.308594 800.078125 143.820313 798.523438 144 C 798.121094 144.046875 794.695313 144.328125 794.585938 144.40625 C 786.945313 150.242188 777.199219 154.121094 768.613281 159.078125 L 758.9375 159.078125 C 758.304688 159.078125 755.769531 156.378906 755.386719 155.890625 C 752.003906 151.535156 756.253906 150.460938 759.96875 149.324219 C 763.488281 148.242188 766.777344 146.402344 770.097656 144.871094 C 776.792969 141.773438 783.097656 138.035156 790.238281 135.847656 C 794.808594 134.441406 799.457031 133.476563 804.257813 133.117188 C 804.710938 133.046875 805.824219 131.386719 806.492188 131.097656 C 807.449219 130.671875 808.628906 130.742188 809.667969 130.609375 C 812.285156 130.265625 814.8125 129.648438 817.480469 129.570313 C 819.5625 129.5 822.304688 129.558594 824.398438 130.351563 Z M 818.152344 81.742188 C 818.257813 81.085938 819.109375 81.132813 819.964844 81.179688 L 819.964844 76.097656 C 818.066406 76.746094 818.496094 75.214844 817.546875 74.96875 C 817.75 77.125 815.515625 80.792969 818.152344 81.742188 M 789.757813 74.40625 C 791.324219 74.175781 791.503906 72.648438 792.171875 71.578125 C 791.222656 71.339844 791.65625 69.808594 789.757813 70.453125 Z M 798.820313 72.710938 L 804.863281 72.710938 C 803.734375 70.207031 808.363281 68.152344 804.863281 67.066406 C 802.511719 68.636719 801.003906 70.988281 798.820313 72.710938 M 789.757813 61.984375 L 789.757813 67.066406 C 793.46875 66.957031 794.765625 64.59375 795.804688 61.984375 C 793.46875 61.476563 792.859375 61.449219 789.757813 61.984375 M 818.757813 67.066406 C 825.90625 64.007813 829.574219 77.375 824.796875 82.875 C 831.734375 80.503906 835.808594 75.46875 838.09375 68.757813 L 839.90625 68.757813 C 841.210938 61.886719 846.457031 58.699219 845.949219 50.128906 C 835.222656 47.207031 826.980469 54.476563 818.757813 57.472656 C 819.144531 60.539063 821.378906 64.535156 818.757813 67.066406 M 754.722656 128.214844 C 754.898438 128.835938 781.804688 115.339844 784.027344 114.140625 C 787.738281 112.128906 791.714844 111.085938 795.570313 109.417969 C 798.484375 108.152344 801.246094 106.625 803.984375 105.070313 C 808.023438 102.769531 822.746094 97.9375 825.207031 97.839844 C 830.257813 97.640625 832.957031 100.09375 832.496094 105.351563 C 832.019531 110.96875 825.878906 114.597656 821.1875 117.128906 C 814.644531 120.660156 808.1875 123.988281 802.070313 128.179688 C 801.28125 124.195313 806.265625 121.734375 808.699219 119.230469 C 812.988281 114.808594 817.058594 109.90625 820.734375 105.015625 C 815.132813 103.351563 808.433594 107.113281 803.808594 109.671875 C 801.347656 111.027344 798.960938 112.535156 796.339844 113.609375 C 794.433594 114.398438 792.335938 114.859375 790.527344 115.863281 C 788.558594 116.96875 787.796875 118.628906 786.230469 120.089844 C 784.765625 121.433594 782.765625 121.808594 781.25 123.269531 C 778.589844 125.839844 775.105469 127.605469 771.941406 129.585938 C 768.300781 131.855469 764.652344 134.144531 760.71875 135.957031 C 756.992188 137.675781 753.039063 140.777344 748.761719 141.015625 C 743.140625 141.320313 740.332031 136.160156 742.753906 131.675781 C 744.746094 127.988281 748.140625 128.492188 751.589844 127.023438 C 754.070313 125.972656 756.199219 124.175781 758.363281 122.65625 C 763.167969 119.277344 768.59375 117.390625 773.78125 114.632813 C 777.054688 112.902344 780.164063 110.945313 783.359375 109.117188 C 784.953125 108.210938 786.566406 107.328125 788.21875 106.527344 C 789.652344 105.828125 792.242188 105.308594 793.378906 104.324219 C 799.160156 99.367188 807.613281 96.921875 810.90625 89.652344 C 811.324219 88.703125 806.675781 89.25 806.355469 89.085938 C 805.121094 88.476563 804.832031 86.316406 804.554688 85.21875 C 804.648438 85.597656 799.480469 88.117188 798.996094 88.367188 C 797.558594 89.117188 791.484375 91.515625 790.617188 89.273438 C 790.101563 87.917969 793.644531 85.621094 794.449219 84.894531 C 796.679688 82.878906 798.210938 80.65625 800.03125 78.355469 C 799.769531 78.691406 795.214844 75.839844 794.222656 76.039063 C 791.996094 76.472656 791.363281 79.359375 790.5 81.03125 C 788.800781 84.390625 786.328125 90.167969 781.296875 87.460938 C 778.347656 90.738281 775.539063 94.527344 773.46875 98.355469 C 772.53125 100.078125 772.019531 103.296875 770.585938 104.523438 C 769.136719 105.757813 767.105469 105.207031 766.765625 107.652344 C 756.578125 104.394531 760.109375 89.453125 760.359375 81.734375 C 760.445313 78.734375 760.382813 75.742188 760.210938 72.746094 C 764.550781 73.152344 767.640625 74.273438 768.949219 78.417969 C 770.265625 82.566406 770.007813 87.125 769.824219 91.386719 C 771.949219 90.542969 774.171875 88.90625 775.855469 87.4375 C 777.351563 86.136719 779.214844 84.261719 779.355469 82.285156 C 779.503906 80.023438 779.179688 77.683594 778.921875 75.421875 C 778.71875 73.566406 777.933594 73.769531 777.246094 72.292969 C 776.464844 70.609375 777.078125 67.785156 776.742188 65.929688 C 776.375 63.953125 775.707031 62.0625 774.9375 60.195313 C 774.207031 58.425781 773.359375 56.699219 772.6875 54.914063 C 772.101563 53.332031 772.019531 49.609375 771.03125 48.4375 C 770.585938 47.910156 769.925781 47.582031 769.210938 47.304688 C 768.746094 45.179688 769.953125 44.609375 769.816406 42.792969 C 771.109375 42.527344 770.972656 43.601563 771.03125 44.488281 C 770.976563 43.75 777.320313 46.074219 777.816406 46.382813 C 779.800781 47.601563 781.386719 49.285156 783.003906 50.894531 C 785.222656 53.117188 787.714844 55.410156 791.089844 55.871094 C 792.808594 56.109375 794.449219 55.660156 796.136719 55.515625 C 798.335938 55.332031 800.644531 55.765625 802.734375 54.902344 C 803.757813 54.484375 804.765625 53.914063 805.347656 52.972656 C 805.875 52.113281 805.707031 51.027344 806.238281 50.167969 C 806.75 49.355469 807.78125 48.960938 808.363281 48.195313 C 809.042969 47.292969 809.410156 46.226563 809.953125 45.261719 C 810.832031 43.71875 812.605469 42.769531 813.605469 41.316406 C 814.457031 40.085938 814.613281 38.519531 815.867188 37.539063 C 817.023438 36.625 825.652344 35.488281 826.007813 37.144531 C 827.457031 43.832031 824.445313 46.589844 820.574219 49.5625 C 820.410156 49.691406 821.960938 50.128906 822.269531 50.039063 C 822.863281 49.882813 823.054688 49.066406 823.429688 48.699219 C 823.921875 48.21875 824.132813 47.675781 824.785156 47.324219 C 829.769531 44.621094 834.585938 42.179688 840.507813 41.609375 C 845.769531 41.101563 853.203125 41.375 856.824219 45.613281 C 858.484375 47.554688 856.359375 54.511719 855.429688 56.566406 C 854.808594 57.96875 853.925781 59.304688 852.804688 60.40625 C 851.519531 61.664063 851.453125 63.070313 850.78125 64.628906 C 850.195313 66.011719 848.441406 66.78125 847.558594 68.015625 C 846.65625 69.269531 845.976563 70.644531 845.199219 71.96875 C 844.425781 73.28125 843.652344 74.617188 842.585938 75.742188 C 841.824219 76.550781 840.671875 77.070313 840.046875 77.988281 C 839.4375 78.859375 839.578125 80.261719 838.84375 81.011719 C 838.492188 81.359375 837.464844 81.457031 837.253906 81.730469 C 836.09375 83.210938 836.542969 84.660156 834.890625 86.121094 L 834.824219 86.183594 L 834.753906 86.242188 L 834.691406 86.300781 L 834.625 86.351563 L 834.496094 86.46875 L 834.425781 86.519531 L 834.359375 86.574219 L 834.296875 86.632813 L 834.105469 86.789063 C 833.015625 87.699219 832.101563 88.519531 832.054688 90.121094 L 832.054688 90.214844 C 826.214844 93.042969 821.652344 95.386719 814.53125 93.035156 C 806.136719 100.625 765.207031 122.929688 754.722656 128.222656 Z M 754.722656 128.214844 "/>
<path style=" stroke:none;fill-rule:evenodd;fill:rgb(44.299316%,10.198975%,37.298584%);fill-opacity:1;" d="M 297.359375 191.949219 C 299.601563 191.886719 303.027344 192.148438 307.160156 192.148438 C 309.050781 192.148438 310.875 192.078125 311.710938 192.015625 C 312.0625 192.933594 312.691406 193.78125 314.308594 195.613281 C 320.257813 202.746094 331.808594 216.289063 336.078125 220.9375 C 336.152344 220.9375 336.214844 220.875 336.285156 220.875 C 336.285156 212.5 336.433594 202.8125 336.007813 198.425781 C 335.796875 196.273438 335.167969 195.289063 333 194.761719 C 331.671875 194.4375 330.410156 194.238281 328.585938 194.046875 C 328.375 193.785156 328.445313 192.078125 328.65625 191.949219 C 330.410156 191.949219 333.625 192.148438 338.039063 192.148438 C 341.472656 192.148438 344.753906 191.949219 346.019531 191.949219 C 346.234375 192.148438 346.234375 193.785156 346.019531 194.046875 C 344.902344 194.238281 344.0625 194.371094 343.15625 194.632813 C 341.1875 195.21875 340.558594 196.074219 340.28125 198.496094 C 339.859375 204.058594 339.796875 213.542969 339.71875 223.230469 C 339.71875 226.167969 339.796875 229.96875 339.859375 232.261719 C 338.8125 232.128906 334.75 232.191406 333.5625 232.320313 C 329.570313 227.085938 312.691406 206.738281 308.207031 201.375 C 308.074219 201.179688 307.859375 201.304688 307.859375 201.375 C 307.71875 208.4375 307.789063 222.117188 308.003906 225.128906 C 308.144531 227.878906 309.121094 228.859375 311.078125 229.246094 C 312.203125 229.515625 313.464844 229.707031 315.210938 229.902344 C 315.425781 230.164063 315.425781 231.738281 315.070313 232.066406 C 312.832031 232.066406 309.679688 231.867188 306.246094 231.867188 C 302.398438 231.867188 299.320313 232.066406 297.359375 232.066406 C 297.082031 231.800781 297.144531 230.164063 297.359375 229.902344 C 298.902344 229.707031 300.089844 229.574219 301.28125 229.183594 C 302.820313 228.726563 303.515625 227.679688 303.730469 225.457031 C 304.144531 221.984375 304.359375 210.078125 304.425781 199.082031 C 304.425781 197.710938 303.730469 195.875 302.121094 195.21875 C 300.789063 194.632813 299.386719 194.308594 297.285156 194.105469 C 297.082031 193.851563 297.144531 192.148438 297.359375 191.949219 "/>
<path style=" stroke:none;fill-rule:evenodd;fill:rgb(44.299316%,10.198975%,37.298584%);fill-opacity:1;" d="M 367.402344 218.890625 C 365.367188 219.609375 361.578125 220.65625 360.664063 221.308594 C 360.453125 221.507813 360.039063 222.8125 360.039063 223.46875 C 360.039063 226.476563 362.347656 228.105469 364.738281 228.105469 C 365.507813 228.105469 366.355469 227.914063 366.976563 227.519531 C 367.332031 227.328125 367.542969 226.867188 367.542969 226.214844 C 367.683594 224.378906 367.683594 220.328125 367.683594 219.222656 C 367.683594 219.152344 367.472656 218.890625 367.402344 218.890625 M 366.699219 211.371094 C 365.578125 209.867188 363.613281 209.210938 361.71875 209.210938 C 360.179688 209.210938 358.914063 209.605469 358.496094 209.996094 C 357.867188 210.519531 356.53125 213.007813 355.964844 214.179688 C 355.691406 214.445313 353.515625 213.464844 353.585938 213.007813 C 353.65625 212.351563 354.636719 209.210938 355.128906 208.886719 C 358.496094 206.59375 363.472656 204.898438 365.507813 204.898438 C 369.082031 204.898438 371.816406 206.46875 373.367188 208.695313 C 374.765625 210.585938 375.117188 213.007813 375.117188 215.292969 C 375.117188 218.433594 374.90625 222.945313 374.90625 225.5625 C 374.90625 226.867188 375.394531 228.105469 377.082031 228.105469 C 377.996094 228.105469 378.554688 228.046875 379.464844 227.78125 C 379.535156 228.046875 379.328125 230.003906 379.117188 230.199219 C 377.359375 231.835938 374.277344 232.621094 372.097656 232.621094 C 369.855469 232.621094 368.523438 231.835938 368.035156 230.722656 L 367.613281 229.484375 C 367.613281 229.351563 367.402344 229.351563 367.332031 229.351563 C 363.898438 231.511719 360.664063 232.621094 359.335938 232.621094 C 357.867188 232.621094 356.382813 232.03125 355.265625 231.054688 C 353.585938 229.542969 352.601563 227.257813 352.601563 224.773438 C 352.601563 223.855469 353.382813 221.570313 353.796875 220.914063 C 355.964844 219.808594 364.523438 217.910156 367.125 216.800781 C 367.402344 216.667969 367.613281 216.34375 367.683594 216.078125 C 367.753906 215.617188 367.753906 215.363281 367.753906 214.90625 C 367.753906 213.726563 367.472656 212.414063 366.699219 211.371094 "/>
<path style=" stroke:none;fill-rule:evenodd;fill:rgb(44.299316%,10.198975%,37.298584%);fill-opacity:1;" d="M 387.652344 229.53125 C 388.625 229.261719 388.980469 228.351563 389.125 227.039063 C 389.1875 225.074219 389.265625 220.03125 389.265625 216.761719 C 389.265625 214.863281 389.1875 212.441406 389.125 211.59375 C 388.980469 210.945313 388.421875 210.089844 385.691406 209.171875 C 385.621094 208.777344 385.832031 207.667969 386.046875 207.40625 C 389.886719 207.011719 394.585938 205.703125 396.75 204.660156 C 396.894531 204.722656 397.035156 204.988281 397.035156 205.117188 C 397.035156 205.839844 396.964844 207.667969 396.964844 208.777344 C 396.964844 208.976563 397.246094 209.039063 397.3125 208.976563 C 400.75 206.425781 404.101563 204.921875 406.484375 204.921875 C 409.707031 204.921875 411.945313 206.164063 413.550781 208.386719 C 414.960938 210.414063 415.378906 213.035156 415.378906 216.109375 C 415.378906 219.96875 415.378906 225.667969 415.449219 227.824219 C 415.449219 228.28125 415.730469 228.738281 416.078125 228.9375 C 417.0625 229.53125 418.039063 229.722656 419.507813 229.921875 C 419.644531 230.308594 419.507813 231.753906 419.15625 232.078125 C 418.109375 232.078125 416.007813 231.882813 411.527344 231.882813 C 407.882813 231.882813 406.203125 232.015625 404.035156 232.078125 C 403.894531 231.753906 403.820313 230.179688 404.035156 229.921875 C 405.015625 229.785156 405.78125 229.65625 406.277344 229.53125 C 407.113281 229.199219 407.394531 228.613281 407.464844 227.371094 C 407.535156 224.75 407.679688 216.566406 407.183594 213.953125 C 406.976563 212.773438 406.347656 211.460938 405.152344 210.683594 C 404.246094 209.957031 403.121094 209.695313 401.726563 209.695313 C 400.53125 209.695313 398.851563 210.152344 397.664063 210.945313 C 397.246094 211.203125 397.035156 211.789063 397.035156 212.378906 C 397.105469 216.761719 397.105469 223.769531 397.167969 227.234375 C 397.246094 228.875 397.664063 229.261719 398.640625 229.53125 C 399.34375 229.722656 399.765625 229.785156 400.957031 229.921875 C 401.097656 230.246094 401.019531 231.753906 400.75 232.078125 C 398.570313 232.015625 396.265625 231.882813 392.902344 231.882813 C 388.625 231.882813 386.667969 232.015625 385.339844 232.078125 C 385.125 231.683594 385.125 230.246094 385.339844 229.921875 C 386.179688 229.855469 386.808594 229.722656 387.652344 229.53125 "/>
<path style=" stroke:none;fill-rule:evenodd;fill:rgb(44.299316%,10.198975%,37.298584%);fill-opacity:1;" d="M 441.882813 205.796875 C 446.789063 205.796875 452.527344 205.597656 455.890625 205.265625 C 456.175781 205.535156 456.246094 207.105469 455.890625 207.429688 C 453.230469 207.890625 451.550781 208.410156 450.078125 209.789063 C 448.183594 211.621094 445.664063 213.984375 443.914063 215.75 C 443.839844 215.8125 443.914063 215.949219 443.914063 216.074219 C 445.382813 218.5 451.96875 226.496094 454.5625 228.527344 C 455.964844 229.640625 456.59375 229.769531 459.257813 229.902344 C 459.464844 230.226563 459.257813 231.800781 458.90625 232.0625 C 457.578125 232.261719 453.089844 232.320313 450.496094 232.320313 C 448.679688 232.261719 447.277344 231.539063 446.570313 230.882813 C 444.824219 229.3125 441.457031 224.59375 438.867188 221.121094 C 438.308594 220.402344 437.679688 219.617188 436.832031 219.425781 C 436.832031 222.761719 436.832031 224.394531 436.902344 226.757813 C 436.972656 228.71875 437.394531 229.117188 438.726563 229.441406 C 439.5 229.640625 440.199219 229.769531 441.179688 229.902344 C 441.386719 230.296875 441.179688 231.800781 440.828125 232.0625 C 439.222656 232.0625 436.832031 231.867188 432.84375 231.867188 C 428.988281 231.867188 426.816406 232.0625 425.066406 232.0625 C 424.714844 231.800781 424.714844 230.164063 425.066406 229.902344 C 426.117188 229.769531 426.816406 229.703125 427.515625 229.441406 C 428.570313 229.117188 428.777344 228.527344 428.925781 227.015625 C 429.058594 225.1875 429.058594 218.957031 429.058594 215.949219 C 429.058594 199.636719 429.058594 195.835938 428.925781 194.464844 C 428.847656 193.539063 428.570313 192.890625 427.660156 192.5625 C 426.949219 192.367188 425.902344 192.167969 424.789063 192.035156 C 424.503906 191.644531 424.574219 190.265625 424.789063 190.074219 C 429.058594 189.871094 434.945313 188.894531 437.253906 188.039063 C 437.394531 188.109375 437.746094 188.894531 437.746094 189.09375 C 437.183594 189.941406 437.050781 191.253906 436.902344 195.707031 C 436.832031 200.027344 436.765625 205.203125 436.832031 217.714844 C 437.746094 217.585938 438.867188 217.0625 439.988281 216.210938 C 442.511719 214.242188 445.804688 210.503906 445.941406 209.457031 C 445.941406 208.9375 445.734375 208.609375 444.894531 208.410156 C 443.980469 208.152344 442.09375 207.960938 441.597656 207.890625 C 441.386719 207.5 441.597656 205.988281 441.882813 205.796875 "/>
<path style=" stroke:none;fill-rule:evenodd;fill:rgb(44.299316%,10.198975%,37.298584%);fill-opacity:1;" d="M 478.515625 218.890625 C 476.488281 219.609375 472.699219 220.65625 471.789063 221.308594 C 471.578125 221.507813 471.152344 222.8125 471.152344 223.46875 C 471.152344 226.476563 473.46875 228.105469 475.859375 228.105469 C 476.628906 228.105469 477.46875 227.914063 478.097656 227.519531 C 478.449219 227.328125 478.664063 226.867188 478.664063 226.214844 C 478.800781 224.378906 478.800781 220.328125 478.800781 219.222656 C 478.800781 219.152344 478.59375 218.890625 478.515625 218.890625 M 477.824219 211.371094 C 476.699219 209.867188 474.734375 209.210938 472.839844 209.210938 C 471.300781 209.210938 470.035156 209.605469 469.613281 209.996094 C 468.976563 210.519531 467.648438 213.007813 467.085938 214.179688 C 466.808594 214.445313 464.628906 213.464844 464.707031 213.007813 C 464.769531 212.351563 465.753906 209.210938 466.25 208.886719 C 469.613281 206.59375 474.59375 204.898438 476.628906 204.898438 C 480.203125 204.898438 482.941406 206.46875 484.480469 208.695313 C 485.878906 210.585938 486.238281 213.007813 486.238281 215.292969 C 486.238281 218.433594 486.019531 222.945313 486.019531 225.5625 C 486.019531 226.867188 486.515625 228.105469 488.203125 228.105469 C 489.109375 228.105469 489.671875 228.046875 490.585938 227.78125 C 490.65625 228.046875 490.445313 230.003906 490.230469 230.199219 C 488.480469 231.835938 485.394531 232.621094 483.222656 232.621094 C 480.972656 232.621094 479.640625 231.835938 479.152344 230.722656 L 478.730469 229.484375 C 478.730469 229.351563 478.515625 229.351563 478.449219 229.351563 C 475.011719 231.511719 471.789063 232.621094 470.453125 232.621094 C 468.976563 232.621094 467.507813 232.03125 466.390625 231.054688 C 464.707031 229.542969 463.71875 227.257813 463.71875 224.773438 C 463.71875 223.855469 464.488281 221.570313 464.910156 220.914063 C 467.085938 219.808594 475.648438 217.910156 478.242188 216.800781 C 478.515625 216.667969 478.730469 216.34375 478.800781 216.078125 C 478.871094 215.617188 478.871094 215.363281 478.871094 214.90625 C 478.871094 213.726563 478.59375 212.414063 477.824219 211.371094 "/>
<path style=" stroke:none;fill-rule:evenodd;fill:rgb(44.299316%,10.198975%,37.298584%);fill-opacity:1;" d="M 506.386719 199.875 C 505.820313 200.269531 502.601563 200.59375 501.832031 200.207031 C 500.714844 199.746094 500.011719 198.703125 499.667969 197.390625 C 499.523438 196.730469 499.589844 195.164063 500.085938 194.578125 C 500.917969 193.859375 503.027344 193.199219 504.707031 193.199219 C 506.175781 193.199219 507.222656 193.652344 507.507813 193.984375 C 508 194.511719 508.136719 195.6875 508.136719 196.210938 C 508.136719 197.515625 507.433594 199.089844 506.386719 199.875 M 512.054688 232.082031 C 510.660156 232.082031 508.207031 231.882813 504.074219 231.882813 C 500.503906 231.882813 497.84375 232.082031 496.300781 232.082031 C 496.09375 231.820313 496.027344 230.179688 496.300781 229.917969 C 497.425781 229.785156 498.265625 229.65625 499.039063 229.394531 C 499.945313 229.066406 500.15625 228.476563 500.226563 226.910156 C 500.289063 225.402344 500.367188 221.214844 500.367188 217.941406 C 500.367188 215.648438 500.289063 213.09375 500.289063 211.917969 C 500.289063 211.394531 500.15625 210.742188 499.730469 210.34375 C 499.175781 209.761719 498.472656 209.429688 496.792969 208.84375 C 496.582031 208.511719 496.722656 207.207031 497 206.945313 C 498.753906 206.945313 504.988281 206.027344 508.277344 204.785156 C 508.277344 207.539063 508.207031 212.25 508.207031 216.042969 C 508.207031 219.453125 508.207031 223.832031 508.277344 226.839844 C 508.277344 228.546875 508.703125 229.066406 509.609375 229.394531 C 510.238281 229.585938 510.9375 229.722656 512.339844 229.917969 C 512.550781 230.246094 512.410156 231.820313 512.054688 232.082031 "/>
<path style=" stroke:none;fill-rule:evenodd;fill:rgb(44.299316%,10.198975%,37.298584%);fill-opacity:1;" d="M 534.378906 191.941406 C 536.546875 191.941406 540.613281 192.136719 544.527344 192.136719 C 548.660156 192.136719 552.164063 191.941406 554.613281 191.941406 C 554.894531 192.203125 554.894531 193.707031 554.613281 194.039063 C 553.359375 194.230469 552.234375 194.425781 551.398438 194.625 C 549.714844 194.953125 549.15625 195.996094 549.085938 198.089844 C 548.945313 203.324219 549.085938 210.265625 549.085938 213.734375 C 549.15625 216.285156 549.367188 219.433594 549.925781 221.457031 C 550.902344 225.710938 554.542969 228.71875 561.335938 228.71875 C 566.378906 228.71875 571.699219 227.148438 572.402344 217.792969 C 572.75 212.878906 572.820313 203.523438 572.542969 198.945313 C 572.402344 196.191406 571.773438 195.082031 569.457031 194.6875 C 568.480469 194.425781 567.082031 194.230469 565.535156 194.039063 C 565.332031 193.707031 565.332031 192.328125 565.605469 191.941406 C 567.773438 191.941406 570.71875 192.136719 574.222656 192.136719 C 578.769531 192.136719 580.871094 191.941406 582.34375 191.941406 C 582.621094 192.203125 582.691406 193.769531 582.34375 194.039063 C 581.289063 194.230469 580.242188 194.363281 579.40625 194.625 C 577.574219 195.082031 577.015625 196.128906 576.882813 199.335938 C 576.675781 205.222656 576.535156 212.878906 576.039063 217.335938 C 574.992188 229.175781 567.710938 233.039063 558.042969 233.039063 C 545.933594 233.039063 541.519531 227.609375 540.683594 221 C 540.050781 216.414063 540.191406 204.242188 540.121094 197.957031 C 540.050781 196.261719 539.558594 195.148438 537.953125 194.6875 C 537.109375 194.425781 535.570313 194.164063 534.3125 194.039063 C 534.097656 193.707031 534.097656 192.203125 534.378906 191.941406 "/>
<path style=" stroke:none;fill-rule:evenodd;fill:rgb(44.299316%,10.198975%,37.298584%);fill-opacity:1;" d="M 589.910156 229.53125 C 590.890625 229.261719 591.238281 228.351563 591.378906 227.039063 C 591.453125 225.074219 591.519531 220.03125 591.519531 216.761719 C 591.519531 214.863281 591.453125 212.441406 591.378906 211.59375 C 591.238281 210.945313 590.679688 210.089844 587.949219 209.171875 C 587.878906 208.777344 588.089844 207.667969 588.300781 207.40625 C 592.152344 207.011719 596.84375 205.703125 599.011719 204.660156 C 599.152344 204.722656 599.292969 204.988281 599.292969 205.117188 C 599.292969 205.839844 599.222656 207.667969 599.222656 208.777344 C 599.222656 208.976563 599.5 209.039063 599.570313 208.976563 C 603.003906 206.425781 606.359375 204.921875 608.746094 204.921875 C 611.96875 204.921875 614.203125 206.164063 615.816406 208.386719 C 617.21875 210.414063 617.636719 213.035156 617.636719 216.109375 C 617.636719 219.96875 617.636719 225.667969 617.707031 227.824219 C 617.707031 228.28125 617.988281 228.738281 618.335938 228.9375 C 619.3125 229.53125 620.296875 229.722656 621.769531 229.921875 C 621.902344 230.308594 621.769531 231.753906 621.414063 232.078125 C 620.367188 232.078125 618.265625 231.882813 613.785156 231.882813 C 610.140625 231.882813 608.464844 232.015625 606.292969 232.078125 C 606.152344 231.753906 606.082031 230.179688 606.292969 229.921875 C 607.273438 229.785156 608.039063 229.65625 608.535156 229.53125 C 609.371094 229.199219 609.65625 228.613281 609.722656 227.371094 C 609.792969 224.75 609.929688 216.566406 609.441406 213.953125 C 609.234375 212.773438 608.597656 211.460938 607.410156 210.683594 C 606.503906 209.957031 605.386719 209.695313 603.984375 209.695313 C 602.789063 209.695313 601.117188 210.152344 599.921875 210.945313 C 599.5 211.203125 599.292969 211.789063 599.292969 212.378906 C 599.363281 216.761719 599.363281 223.769531 599.433594 227.234375 C 599.5 228.875 599.921875 229.261719 600.898438 229.53125 C 601.605469 229.722656 602.023438 229.785156 603.214844 229.921875 C 603.355469 230.246094 603.28125 231.753906 603.003906 232.078125 C 600.828125 232.015625 598.519531 231.882813 595.160156 231.882813 C 590.890625 231.882813 588.929688 232.015625 587.601563 232.078125 C 587.386719 231.683594 587.386719 230.246094 587.601563 229.921875 C 588.441406 229.855469 589.070313 229.722656 589.910156 229.53125 "/>
<path style=" stroke:none;fill-rule:evenodd;fill:rgb(44.299316%,10.198975%,37.298584%);fill-opacity:1;" d="M 637.730469 199.875 C 637.167969 200.269531 633.949219 200.59375 633.179688 200.207031 C 632.054688 199.746094 631.355469 198.703125 631.007813 197.390625 C 630.859375 196.730469 630.9375 195.164063 631.425781 194.578125 C 632.265625 193.859375 634.367188 193.199219 636.046875 193.199219 C 637.515625 193.199219 638.574219 193.652344 638.847656 193.984375 C 639.339844 194.511719 639.476563 195.6875 639.476563 196.210938 C 639.476563 197.515625 638.78125 199.089844 637.730469 199.875 M 643.40625 232.082031 C 642 232.082031 639.550781 231.882813 635.417969 231.882813 C 631.84375 231.882813 629.183594 232.082031 627.640625 232.082031 C 627.4375 231.820313 627.363281 230.179688 627.640625 229.917969 C 628.765625 229.785156 629.609375 229.65625 630.371094 229.394531 C 631.289063 229.066406 631.496094 228.476563 631.566406 226.910156 C 631.640625 225.402344 631.707031 221.214844 631.707031 217.941406 C 631.707031 215.648438 631.640625 213.09375 631.640625 211.917969 C 631.640625 211.394531 631.496094 210.742188 631.078125 210.34375 C 630.515625 209.761719 629.8125 209.429688 628.136719 208.84375 C 627.921875 208.511719 628.0625 207.207031 628.347656 206.945313 C 630.09375 206.945313 636.328125 206.027344 639.617188 204.785156 C 639.617188 207.539063 639.550781 212.25 639.550781 216.042969 C 639.550781 219.453125 639.550781 223.832031 639.617188 226.839844 C 639.617188 228.546875 640.039063 229.066406 640.957031 229.394531 C 641.578125 229.585938 642.285156 229.722656 643.679688 229.917969 C 643.890625 230.246094 643.75 231.820313 643.40625 232.082031 "/>
<path style=" stroke:none;fill-rule:evenodd;fill:rgb(44.299316%,10.198975%,37.298584%);fill-opacity:1;" d="M 647.925781 205.621094 C 649.960938 205.683594 653.113281 205.816406 655.984375 205.816406 C 659.417969 205.816406 661.804688 205.683594 663.339844 205.621094 C 663.695313 205.882813 663.757813 207.386719 663.484375 207.710938 C 662.570313 207.910156 661.460938 208.109375 660.960938 208.304688 C 660.539063 208.433594 660.46875 208.890625 660.539063 209.152344 C 661.382813 211.710938 665.023438 220.550781 666.21875 223.238281 C 666.289063 223.363281 666.421875 223.300781 666.496094 223.238281 C 667.824219 220.160156 670.558594 213.804688 671.472656 210.925781 C 672.101563 209.152344 671.613281 208.628906 670.835938 208.367188 C 669.789063 208.042969 668.886719 207.847656 667.6875 207.710938 C 667.484375 207.320313 667.6875 205.816406 667.972656 205.621094 C 668.949219 205.621094 671.683594 205.816406 674.273438 205.816406 C 676.515625 205.816406 679.109375 205.683594 680.441406 205.621094 C 680.722656 205.816406 680.652344 207.386719 680.367188 207.710938 C 679.390625 207.910156 678.6875 207.980469 677.921875 208.234375 C 676.796875 208.628906 676.027344 209.546875 675.113281 211.378906 C 673.296875 214.914063 670.773438 220.351563 668.390625 225.914063 C 667.265625 228.671875 666.566406 230.5 666.007813 232.074219 C 664.953125 232.011719 662.570313 231.941406 661.519531 232.140625 C 660.960938 230.4375 660.195313 228.542969 659.351563 226.445313 C 657.597656 221.988281 655.359375 216.882813 654.027344 213.804688 C 651.988281 209.289063 651.644531 208.757813 650.03125 208.234375 C 649.191406 207.980469 648.351563 207.847656 647.578125 207.710938 C 647.507813 207.320313 647.648438 205.816406 647.925781 205.621094 "/>
<path style=" stroke:none;fill-rule:evenodd;fill:rgb(44.299316%,10.198975%,37.298584%);fill-opacity:1;" d="M 693.191406 215.03125 C 693.191406 215.097656 693.332031 215.425781 693.609375 215.425781 C 695.433594 215.496094 701.25 215.425781 702.507813 215.167969 C 702.789063 215.101563 702.925781 214.835938 703 214.578125 C 702.648438 210.71875 700.894531 207.449219 697.890625 207.449219 C 695.152344 207.449219 693.261719 210.585938 693.191406 215.03125 M 711.261719 224.972656 C 711.332031 225.5625 711.050781 226.800781 710.976563 226.996094 C 707.902344 230.460938 702.789063 232.621094 698.652344 232.621094 C 694.664063 232.621094 691.65625 231.441406 689.554688 229.484375 C 686.609375 226.800781 685.421875 222.75 685.421875 218.828125 C 685.421875 213.394531 688.148438 209.28125 691.859375 207.058594 C 694.171875 205.75 697.394531 204.898438 699.984375 204.898438 C 707.484375 204.898438 710.066406 210.65625 710.632813 214.3125 C 710.703125 214.644531 711.261719 214.96875 711.75 215.101563 C 711.820313 215.363281 711.472656 216.667969 711.261719 216.800781 C 708.882813 217.519531 698.867188 218.105469 693.609375 218.304688 C 693.40625 218.304688 693.261719 218.691406 693.261719 218.953125 C 693.40625 220.851563 694.308594 223.136719 695.992188 224.710938 C 697.746094 226.410156 699.984375 227.191406 702.925781 227.191406 C 705.871094 227.191406 708.320313 226.472656 710.976563 224.578125 C 711.050781 224.644531 711.261719 224.773438 711.261719 224.972656 "/>
<path style=" stroke:none;fill-rule:evenodd;fill:rgb(44.299316%,10.198975%,37.298584%);fill-opacity:1;" d="M 742.128906 206.6875 C 742.199219 206.882813 742.199219 207.667969 742.128906 208 C 741.921875 208.910156 740.304688 212.179688 739.324219 213.359375 C 739.183594 213.492188 738.625 213.621094 738.476563 213.558594 C 737.011719 212.179688 735.117188 211.007813 733.222656 211.007813 C 732.320313 211.007813 731.335938 211.59375 730.632813 212.378906 C 730.421875 212.640625 730.210938 213.230469 730.210938 213.753906 C 730.140625 217.484375 730.210938 225.730469 730.28125 226.714844 C 730.421875 228.414063 730.632813 229.003906 732.035156 229.332031 C 733.222656 229.65625 734.417969 229.785156 735.886719 229.917969 C 736.03125 230.246094 735.886719 231.753906 735.542969 232.078125 C 734.273438 232.078125 730.492188 231.882813 726.074219 231.882813 C 723.132813 231.882813 719.972656 232.078125 718.359375 232.078125 C 718.15625 231.753906 718.085938 230.179688 718.359375 229.917969 C 719.273438 229.855469 720.261719 229.722656 721.097656 229.398438 C 721.726563 229.199219 722.148438 228.675781 722.21875 227.371094 C 722.363281 226.183594 722.433594 221.28125 722.433594 217.027344 C 722.433594 214.730469 722.433594 212.773438 722.292969 211.792969 C 722.21875 210.945313 721.796875 210.089844 718.644531 209.039063 C 718.644531 208.71875 718.78125 207.539063 718.996094 207.34375 C 721.65625 207.144531 727.269531 205.964844 729.722656 204.660156 C 729.933594 204.660156 730.140625 204.855469 730.210938 204.988281 C 730.140625 205.839844 729.933594 208.972656 729.933594 210.019531 C 729.933594 210.222656 730.210938 210.222656 730.351563 210.152344 C 731.757813 208.648438 733.011719 207.40625 734.480469 206.296875 C 735.46875 205.578125 736.941406 204.921875 738.339844 204.921875 C 740.023438 204.921875 741.5 205.578125 742.128906 206.6875 "/>
<path style=" stroke:none;fill-rule:evenodd;fill:rgb(44.299316%,10.198975%,37.298584%);fill-opacity:1;" d="M 767.199219 213.136719 C 766.921875 213.332031 765.308594 213.464844 765.03125 213.269531 C 764.472656 210.519531 763.765625 208.824219 762.164063 207.90625 C 761.320313 207.449219 760.273438 207.121094 759.085938 207.121094 C 756.910156 207.121094 755.304688 208.429688 755.304688 210.261719 C 755.304688 212.15625 756.136719 213.269531 762.023438 215.816406 C 767.617188 218.171875 769.300781 220.394531 769.300781 223.859375 C 769.300781 229.292969 763.765625 232.558594 757.265625 232.558594 C 753.964844 232.558594 750.964844 231.972656 748.933594 231.316406 C 748.578125 229.878906 747.957031 224.714844 747.878906 223.472656 C 748.097656 223.210938 749.707031 222.753906 750.125 222.816406 C 751.25 226.285156 752.570313 228.175781 754.527344 229.292969 C 755.652344 229.941406 757.125 230.203125 758.242188 230.203125 C 760.691406 230.203125 762.226563 228.960938 762.226563 227.195313 C 762.226563 225.234375 760.96875 224.121094 757.402344 222.488281 C 750.683594 219.484375 748.652344 217.066406 748.652344 213.269531 C 748.652344 208.753906 752.429688 204.898438 759.992188 204.898438 C 761.25 204.898438 763.488281 205.097656 764.820313 205.289063 L 768.039063 205.683594 C 767.550781 207.84375 767.410156 210.390625 767.199219 213.136719 "/>
<path style=" stroke:none;fill-rule:evenodd;fill:rgb(44.299316%,10.198975%,37.298584%);fill-opacity:1;" d="M 786.464844 199.875 C 785.90625 200.269531 782.683594 200.59375 781.914063 200.207031 C 780.796875 199.746094 780.097656 198.703125 779.75 197.390625 C 779.605469 196.730469 779.679688 195.164063 780.164063 194.578125 C 781.007813 193.859375 783.101563 193.199219 784.785156 193.199219 C 786.257813 193.199219 787.308594 193.652344 787.585938 193.984375 C 788.085938 194.511719 788.222656 195.6875 788.222656 196.210938 C 788.222656 197.515625 787.519531 199.089844 786.464844 199.875 M 792.140625 232.082031 C 790.738281 232.082031 788.289063 231.882813 784.15625 231.882813 C 780.585938 231.882813 777.921875 232.082031 776.382813 232.082031 C 776.175781 231.820313 776.105469 230.179688 776.382813 229.917969 C 777.5 229.785156 778.347656 229.65625 779.121094 229.394531 C 780.023438 229.066406 780.230469 228.476563 780.300781 226.910156 C 780.378906 225.402344 780.441406 221.214844 780.441406 217.941406 C 780.441406 215.648438 780.378906 213.09375 780.378906 211.917969 C 780.378906 211.394531 780.230469 210.742188 779.8125 210.34375 C 779.253906 209.761719 778.554688 209.429688 776.875 208.84375 C 776.664063 208.511719 776.804688 207.207031 777.089844 206.945313 C 778.835938 206.945313 785.070313 206.027344 788.359375 204.785156 C 788.359375 207.539063 788.289063 212.25 788.289063 216.042969 C 788.289063 219.453125 788.289063 223.832031 788.359375 226.839844 C 788.359375 228.546875 788.777344 229.066406 789.691406 229.394531 C 790.320313 229.585938 791.019531 229.722656 792.421875 229.917969 C 792.632813 230.246094 792.492188 231.820313 792.140625 232.082031 "/>
<path style=" stroke:none;fill-rule:evenodd;fill:rgb(44.299316%,10.198975%,37.298584%);fill-opacity:1;" d="M 809.96875 209.46875 C 809.828125 209.46875 809.691406 209.734375 809.691406 209.863281 C 809.621094 212.546875 809.621094 217.519531 809.621094 220.652344 C 809.621094 223.136719 809.691406 224.320313 809.96875 225.492188 C 810.324219 226.996094 811.792969 228.046875 813.75 228.046875 C 815.367188 228.046875 816.414063 227.847656 817.679688 227.058594 C 817.890625 227.328125 817.75 228.832031 817.609375 229.289063 C 815.71875 231.574219 812.492188 232.621094 809.691406 232.621094 C 806.609375 232.621094 804.089844 231.574219 802.824219 229.414063 C 801.773438 227.714844 801.773438 225.949219 801.773438 222.09375 C 801.773438 218.691406 801.84375 212.808594 801.84375 210.0625 C 801.84375 209.863281 801.707031 209.539063 801.421875 209.46875 C 800.441406 209.40625 798.972656 209.34375 797.921875 209.210938 C 797.921875 208.75 798.269531 207.183594 798.550781 206.660156 C 799.464844 206.53125 801 206.203125 801.496094 206.003906 C 801.636719 206.003906 801.773438 205.742188 801.84375 205.484375 L 801.84375 199.929688 C 803.738281 199.335938 807.519531 197.445313 808.503906 196.59375 C 808.78125 196.527344 809.691406 196.460938 809.96875 196.527344 C 809.828125 197.832031 809.691406 200.972656 809.691406 205.355469 C 809.691406 205.554688 809.828125 205.8125 809.96875 205.8125 C 812.070313 205.8125 816.347656 205.617188 817.960938 205.484375 C 817.679688 206.53125 817.332031 208.488281 817.253906 209.539063 C 815.296875 209.46875 812.425781 209.46875 809.96875 209.46875 "/>
<path style=" stroke:none;fill-rule:evenodd;fill:rgb(44.299316%,10.198975%,37.298584%);fill-opacity:1;" d="M 821.8125 205.621094 C 822.789063 205.621094 826.003906 205.816406 830.066406 205.816406 C 833.847656 205.816406 836.152344 205.621094 837.832031 205.621094 C 838.117188 205.945313 838.117188 207.320313 837.976563 207.710938 C 837.070313 207.90625 836.152344 208.105469 835.730469 208.300781 C 835.171875 208.5625 835.109375 209.214844 835.171875 209.476563 C 836.296875 212.617188 840.078125 221.585938 840.847656 223.089844 L 841.125 223.089844 C 843.15625 218.902344 845.605469 212.617188 845.957031 210.464844 C 846.027344 209.609375 846.027344 208.757813 844.699219 208.367188 C 843.992188 208.105469 843.015625 207.90625 841.621094 207.710938 C 841.539063 207.121094 841.683594 205.816406 841.894531 205.621094 C 843.226563 205.621094 845.605469 205.816406 848.191406 205.816406 C 850.574219 205.816406 852.8125 205.683594 854.84375 205.621094 C 855.054688 205.945313 855.125 207.257813 854.914063 207.710938 C 853.796875 207.90625 853.09375 208.042969 852.394531 208.367188 C 851.136719 208.824219 850.300781 209.742188 849.457031 211.96875 C 845.046875 222.828125 839.171875 234.082031 833.707031 243.246094 C 832.863281 244.683594 831.816406 246.386719 831.328125 247.300781 L 830.554688 247.5 C 829.578125 247.4375 826.847656 246.449219 826.152344 245.535156 C 826.082031 245.277344 826.082031 244.484375 826.222656 244.292969 C 828.59375 241.675781 833.707031 235.917969 836.152344 231.273438 C 835.949219 231.007813 835.667969 230.480469 835.3125 229.761719 C 833.707031 226.105469 830.980469 219.75 828.527344 214.390625 C 826.5 209.933594 825.863281 208.824219 823.910156 208.234375 C 823.207031 208.042969 822.371094 207.90625 821.457031 207.710938 C 821.390625 207.1875 821.53125 205.882813 821.8125 205.621094 "/>
</g>
</svg>
